<svg xmlns="http://www.w3.org/2000/svg" xmlns:xlink="http://www.w3.org/1999/xlink" width="1094" height="800" viewBox="0 0 1094 800">
  <defs>
    <clipPath id="clip-Artboard_1">
      <rect width="1094" height="800"/>
    </clipPath>
  </defs>
  <g id="Artboard_1" data-name="Artboard – 1" clip-path="url(#clip-Artboard_1)">
    <path id="Path_1" data-name="Path 1" d="M261.212,318.445,246.054,211.293,336.2,286.181l134.823-20.1L406.211,367.2l51.82,119.379L349.152,432.4l-59.486,99.775L261.212,423.022l-109.2-36.353Z" transform="translate(-128.686 103.433)" fill="none" stroke="#fff" stroke-width="15"/>
    <path id="Path_2" data-name="Path 2" d="M387.953,362.016l12.367-82.01,50.924,65.2,86.077-9.154-51.266,71.219,36.767,59.25-71.578-18.975-63.291,46.719V422.548l-66.937-15.279Z" transform="matrix(0.875, -0.485, 0.485, 0.875, -21.382, 508.052)" fill="none" stroke="#fff" stroke-width="15"/>
    <path id="Path_5" data-name="Path 5" d="M308.994,187.412V129.638l36.623,46.151h55.9l-34.553,45.35L383.033,266.7l-50.753-30.918L303.023,281.9V228.816l-54.158-22.652Z" transform="translate(391.298 72.884) rotate(56)" fill="none" stroke="#fff" stroke-width="15"/>
    <path id="Path_3" data-name="Path 3" d="M284.8,118.047Z" transform="translate(-56 191)" fill="none" stroke="#707070" stroke-width="1"/>
    <path id="Path_4" data-name="Path 4" d="M159.77,108.617" transform="translate(-56 172.078)" fill="none" stroke="#707070" stroke-width="1"/>
    <path id="Path_6" data-name="Path 6" d="M233.656,312.386l-2.161-101.093,76.186,67.931,113.948-18.232-54.774,91.724,43.8,108.29L319.637,431.05l-51.283,71.318L244.3,403.355l-92.289-32.976,44.939-31.922Z" transform="matrix(-0.105, 0.995, -0.995, -0.105, 1263.968, 387.542)" fill="none" stroke="#fff" stroke-width="15"/>
    <path id="Path_7" data-name="Path 7" d="M120.339,422.059v-43.7l32.581,34.087h41.672l-19.8,37.872,13.47,37.77-43.416-13.826L120.339,499.15l-8.857-31.841L80.523,450.317Z" transform="translate(-57 219)" fill="none" stroke="#fff" stroke-width="15"/>
    <path id="Path_8" data-name="Path 8" d="M107.307,406.249v-27.89l21.918,21.755h28.033l-13.318,24.171L153,448.39l-29.206-8.824L107.307,455.45l-5.958-20.321L80.523,424.284Z" transform="translate(234.677 -84.036) rotate(41)" fill="none" stroke="#fff" stroke-width="15"/>
    <path id="Path_9" data-name="Path 9" d="M364.683,347.924v-56.1l41.289,43.094,56.153-7.082-33.444,55.1,23.985,45.838-46.694-14.68-41.289,36.143V394.754l-43.667-11.821Z" transform="translate(105.339 1193.498) rotate(-109)" fill="none" stroke="#fff" stroke-width="15"/>
    <path id="Path_10" data-name="Path 10" d="M358.422,338.148V291.824l35.369,35.584,48.1-5.848-28.649,45.5,20.546,37.85-40-12.122-35.369,29.845V376.817l-37.406-9.761Z" transform="translate(106.285 763.253) rotate(-120)" fill="none" stroke="#fff" stroke-width="15"/>
    <path id="Path_11" data-name="Path 11" d="M300.216,180.028v-50.39l31.277,40.252h47.74l-27.316,39.188,26.438,46.606-53.312-17.244-41.3,36.811,4.93-55.63-39.809-23.239Z" transform="translate(926.978 172.665) rotate(99)" fill="none" stroke="#fff" stroke-width="15"/>
    <path id="Path_12" data-name="Path 12" d="M107.307,406.249v-27.89l21.918,21.755h28.033l-13.318,24.171L153,448.39l-29.206-8.824-19.689,27.069-2.756-31.506L71.376,416.992Z" transform="matrix(-0.087, 0.996, -0.996, -0.087, 694.571, 16.502)" fill="none" stroke="#fff" stroke-width="15"/>
    <path id="Path_13" data-name="Path 13" d="M100.89-172.07,92.166-223.7,137.2-190.12,202.966-202.2,174.36-149.091l14.391,56.257-45.857-14.362-26.2,45.252-15.8-53.11L61.66-129.327Z" transform="translate(-38 252)" fill="none" stroke="#fff" stroke-width="15"/>
    <path id="Path_14" data-name="Path 14" d="M727.9,442.859l10.64-39.616,9.86,39.616,28.947,9.319L748.4,467.509l-9.86,28.411L727.9,467.509,698.38,452.178l29.517-9.319" transform="translate(-50 281)" fill="#fff" stroke="#fff" stroke-width="15"/>
    <path id="Path_15" data-name="Path 15" d="M718.05,423.491l7.09-20.248,6.571,20.248L751,428.254l-19.29,7.836-6.571,14.521-7.09-14.521-19.67-7.836,19.67-4.763" transform="matrix(0.951, 0.309, -0.309, 0.951, -15.603, -119.737)" fill="#fff" stroke="#fff" stroke-width="15"/>
    <path id="Path_16" data-name="Path 16" d="M725.785,433.684l9.878-30.441,9.155,30.441,26.876,7.161-26.876,11.78-9.155,21.831-9.878-21.831-27.405-11.78,27.405-7.161" transform="matrix(0.921, -0.391, 0.391, 0.921, -665.622, 625.804)" fill="#fff" stroke="#fff" stroke-width="15"/>
    <path id="Path_17" data-name="Path 17" d="M713.063,422.631l5.293-19.388,4.9,19.388,14.4,4.561-14.4,7.5-4.9,13.9-5.293-13.9-14.684-7.5,14.684-4.561" transform="matrix(0.695, 0.719, -0.719, 0.695, 142.446, -497.256)" fill="#fff" stroke="#fff" stroke-width="15"/>
    <path id="Path_18" data-name="Path 18" d="M100.89,477.4V455.91l11.6,21.489h13.017l-13.017,10.81v13.826l-11.6-13.826H86.457Z" transform="translate(-50 281)" fill="#fff" stroke="#fff" stroke-width="1"/>
    <path id="Path_19" data-name="Path 19" d="M100.89,477.4V455.91l11.6,21.489h13.017l-13.017,10.81v13.826l-11.6-13.826H86.457Z" transform="translate(170.836 201.599) rotate(-19)" fill="#fff" stroke="#fff" stroke-width="1"/>
    <path id="Path_20" data-name="Path 20" d="M116.232,497.869V455.91l23.93,41.959h26.852l-26.852,21.108v27l-23.93-27H86.457Z" transform="matrix(0.883, -0.469, 0.469, 0.883, 682.266, 353.51)" fill="#fff" stroke="#fff" stroke-width="1"/>
    <path id="Path_21" data-name="Path 21" d="M100.89,477.4V455.91l11.6,21.489h13.017l-13.017,10.81v13.826l-11.6-13.826H86.457Z" transform="translate(19 -237)" fill="#fff" stroke="#fff" stroke-width="1"/>
    <path id="Path_22" data-name="Path 22" d="M105.033,481.274V455.91l14.929,25.364h16.753l-16.753,12.76v16.319l-14.929-16.319H86.457Z" transform="translate(543.666 358.028) rotate(97)" fill="#fff" stroke="#fff" stroke-width="1"/>
  </g>
</svg>
